<svg viewBox="0 0 1513 400" xmlns="http://www.w3.org/2000/svg"><g><g><g><g><g><line x1="40" y1="378" x2="35" y2="378" style="visibility: inherit;" fill="rgb(0, 0, 0)" stroke="rgb(204, 204, 204)" stroke-width="1px"></line><line x1="40" y1="343.6363636363636" x2="35" y2="343.6363636363636" style="visibility: inherit;" fill="rgb(0, 0, 0)" stroke="rgb(204, 204, 204)" stroke-width="1px"></line><line x1="40" y1="309.27272727272725" x2="35" y2="309.27272727272725" style="visibility: inherit;" fill="rgb(0, 0, 0)" stroke="rgb(204, 204, 204)" stroke-width="1px"></line><line x1="40" y1="274.9090909090909" x2="35" y2="274.9090909090909" style="visibility: inherit;" fill="rgb(0, 0, 0)" stroke="rgb(204, 204, 204)" stroke-width="1px"></line><line x1="40" y1="240.54545454545456" x2="35" y2="240.54545454545456" style="visibility: inherit;" fill="rgb(0, 0, 0)" stroke="rgb(204, 204, 204)" stroke-width="1px"></line><line x1="40" y1="206.18181818181816" x2="35" y2="206.18181818181816" style="visibility: inherit;" fill="rgb(0, 0, 0)" stroke="rgb(204, 204, 204)" stroke-width="1px"></line><line x1="40" y1="171.81818181818184" x2="35" y2="171.81818181818184" style="visibility: inherit;" fill="rgb(0, 0, 0)" stroke="rgb(204, 204, 204)" stroke-width="1px"></line><line x1="40" y1="137.45454545454547" x2="35" y2="137.45454545454547" style="visibility: inherit;" fill="rgb(0, 0, 0)" stroke="rgb(204, 204, 204)" stroke-width="1px"></line><line x1="40" y1="103.09090909090907" x2="35" y2="103.09090909090907" style="visibility: inherit;" fill="rgb(0, 0, 0)" stroke="rgb(204, 204, 204)" stroke-width="1px"></line><line x1="40" y1="68.72727272727269" x2="35" y2="68.72727272727269" style="visibility: inherit;" fill="rgb(0, 0, 0)" stroke="rgb(204, 204, 204)" stroke-width="1px"></line><line x1="40" y1="34.36363636363632" x2="35" y2="34.36363636363632" style="visibility: inherit;" fill="rgb(0, 0, 0)" stroke="rgb(204, 204, 204)" stroke-width="1px"></line><line x1="40" y1="0" x2="35" y2="0" style="visibility: inherit;" fill="rgb(0, 0, 0)" stroke="rgb(204, 204, 204)" stroke-width="1px"></line></g><g transform="translate(30, 0)"><text x="0" y="378" dx="0em" dy="0.3em" style="text-anchor: end; visibility: hidden; font-family: &quot;Helvetica Neue&quot;, sans-serif; font-size: 12px; font-weight: 200;" fill="rgb(50, 49, 63)" stroke="none" stroke-width="1px">0.8</text><text x="0" y="343.6363636363636" dx="0em" dy="0.3em" style="text-anchor: end; visibility: inherit; font-family: &quot;Helvetica Neue&quot;, sans-serif; font-size: 12px; font-weight: 200;" fill="rgb(50, 49, 63)" stroke="none" stroke-width="1px">0.9</text><text x="0" y="309.27272727272725" dx="0em" dy="0.3em" style="text-anchor: end; visibility: inherit; font-family: &quot;Helvetica Neue&quot;, sans-serif; font-size: 12px; font-weight: 200;" fill="rgb(50, 49, 63)" stroke="none" stroke-width="1px">1</text><text x="0" y="274.9090909090909" dx="0em" dy="0.3em" style="text-anchor: end; visibility: inherit; font-family: &quot;Helvetica Neue&quot;, sans-serif; font-size: 12px; font-weight: 200;" fill="rgb(50, 49, 63)" stroke="none" stroke-width="1px">1.1</text><text x="0" y="240.54545454545456" dx="0em" dy="0.3em" style="text-anchor: end; visibility: inherit; font-family: &quot;Helvetica Neue&quot;, sans-serif; font-size: 12px; font-weight: 200;" fill="rgb(50, 49, 63)" stroke="none" stroke-width="1px">1.2</text><text x="0" y="206.18181818181816" dx="0em" dy="0.3em" style="text-anchor: end; visibility: inherit; font-family: &quot;Helvetica Neue&quot;, sans-serif; font-size: 12px; font-weight: 200;" fill="rgb(50, 49, 63)" stroke="none" stroke-width="1px">1.3</text><text x="0" y="171.81818181818184" dx="0em" dy="0.3em" style="text-anchor: end; visibility: inherit; font-family: &quot;Helvetica Neue&quot;, sans-serif; font-size: 12px; font-weight: 200;" fill="rgb(50, 49, 63)" stroke="none" stroke-width="1px">1.4</text><text x="0" y="137.45454545454547" dx="0em" dy="0.3em" style="text-anchor: end; visibility: inherit; font-family: &quot;Helvetica Neue&quot;, sans-serif; font-size: 12px; font-weight: 200;" fill="rgb(50, 49, 63)" stroke="none" stroke-width="1px">1.5</text><text x="0" y="103.09090909090907" dx="0em" dy="0.3em" style="text-anchor: end; visibility: inherit; font-family: &quot;Helvetica Neue&quot;, sans-serif; font-size: 12px; font-weight: 200;" fill="rgb(50, 49, 63)" stroke="none" stroke-width="1px">1.6</text><text x="0" y="68.72727272727269" dx="0em" dy="0.3em" style="text-anchor: end; visibility: inherit; font-family: &quot;Helvetica Neue&quot;, sans-serif; font-size: 12px; font-weight: 200;" fill="rgb(50, 49, 63)" stroke="none" stroke-width="1px">1.7</text><text x="0" y="34.36363636363632" dx="0em" dy="0.3em" style="text-anchor: end; visibility: inherit; font-family: &quot;Helvetica Neue&quot;, sans-serif; font-size: 12px; font-weight: 200;" fill="rgb(50, 49, 63)" stroke="none" stroke-width="1px">1.8</text><text x="0" y="0" dx="0em" dy="0.3em" style="text-anchor: end; visibility: hidden; font-family: &quot;Helvetica Neue&quot;, sans-serif; font-size: 12px; font-weight: 200;" fill="rgb(50, 49, 63)" stroke="none" stroke-width="1px">1.9</text></g><line x1="40" y1="0" x2="40" y2="378" fill="rgb(0, 0, 0)" stroke="rgb(204, 204, 204)" stroke-width="1px"></line></g></g><g transform="translate(40, 0)" clip-path="url(#clip_0)"><clipPath id="clip_0"><rect width="1473" height="378"></rect></clipPath><g><g><g><line x1="0" y1="0" x2="0" y2="378" fill="rgb(0, 0, 0)" stroke="rgb(60, 60, 60)" stroke-width="1px" opacity="0.25"></line><line x1="105.21428571428571" y1="0" x2="105.21428571428571" y2="378" fill="rgb(0, 0, 0)" stroke="rgb(60, 60, 60)" stroke-width="1px" opacity="0.25"></line><line x1="210.42857142857142" y1="0" x2="210.42857142857142" y2="378" fill="rgb(0, 0, 0)" stroke="rgb(60, 60, 60)" stroke-width="1px" opacity="0.25"></line><line x1="315.6428571428571" y1="0" x2="315.6428571428571" y2="378" fill="rgb(0, 0, 0)" stroke="rgb(60, 60, 60)" stroke-width="1px" opacity="0.25"></line><line x1="420.85714285714283" y1="0" x2="420.85714285714283" y2="378" fill="rgb(0, 0, 0)" stroke="rgb(60, 60, 60)" stroke-width="1px" opacity="0.25"></line><line x1="526.0714285714286" y1="0" x2="526.0714285714286" y2="378" fill="rgb(0, 0, 0)" stroke="rgb(60, 60, 60)" stroke-width="1px" opacity="0.25"></line><line x1="631.2857142857142" y1="0" x2="631.2857142857142" y2="378" fill="rgb(0, 0, 0)" stroke="rgb(60, 60, 60)" stroke-width="1px" opacity="0.25"></line><line x1="736.5" y1="0" x2="736.5" y2="378" fill="rgb(0, 0, 0)" stroke="rgb(60, 60, 60)" stroke-width="1px" opacity="0.25"></line><line x1="841.7142857142857" y1="0" x2="841.7142857142857" y2="378" fill="rgb(0, 0, 0)" stroke="rgb(60, 60, 60)" stroke-width="1px" opacity="0.25"></line><line x1="946.9285714285714" y1="0" x2="946.9285714285714" y2="378" fill="rgb(0, 0, 0)" stroke="rgb(60, 60, 60)" stroke-width="1px" opacity="0.25"></line><line x1="1052.142857142857" y1="0" x2="1052.142857142857" y2="378" fill="rgb(0, 0, 0)" stroke="rgb(60, 60, 60)" stroke-width="1px" opacity="0.25"></line><line x1="1157.357142857143" y1="0" x2="1157.357142857143" y2="378" fill="rgb(0, 0, 0)" stroke="rgb(60, 60, 60)" stroke-width="1px" opacity="0.25"></line><line x1="1262.5714285714284" y1="0" x2="1262.5714285714284" y2="378" fill="rgb(0, 0, 0)" stroke="rgb(60, 60, 60)" stroke-width="1px" opacity="0.25"></line><line x1="1367.7857142857142" y1="0" x2="1367.7857142857142" y2="378" fill="rgb(0, 0, 0)" stroke="rgb(60, 60, 60)" stroke-width="1px" opacity="0.25"></line><line x1="1473" y1="0" x2="1473" y2="378" fill="rgb(0, 0, 0)" stroke="rgb(60, 60, 60)" stroke-width="1px" opacity="0.25"></line></g><g><line x1="0" y1="378" x2="1473" y2="378" fill="rgb(0, 0, 0)" stroke="rgb(60, 60, 60)" stroke-width="1px" opacity="0.25"></line><line x1="0" y1="343.6363636363636" x2="1473" y2="343.6363636363636" fill="rgb(0, 0, 0)" stroke="rgb(60, 60, 60)" stroke-width="1px" opacity="0.25"></line><line x1="0" y1="309.27272727272725" x2="1473" y2="309.27272727272725" fill="rgb(0, 0, 0)" stroke="rgb(60, 60, 60)" stroke-width="1px" opacity="0.25"></line><line x1="0" y1="274.9090909090909" x2="1473" y2="274.9090909090909" fill="rgb(0, 0, 0)" stroke="rgb(60, 60, 60)" stroke-width="1px" opacity="0.25"></line><line x1="0" y1="240.54545454545456" x2="1473" y2="240.54545454545456" fill="rgb(0, 0, 0)" stroke="rgb(60, 60, 60)" stroke-width="1px" opacity="0.25"></line><line x1="0" y1="206.18181818181816" x2="1473" y2="206.18181818181816" fill="rgb(0, 0, 0)" stroke="rgb(60, 60, 60)" stroke-width="1px" opacity="0.25"></line><line x1="0" y1="171.81818181818184" x2="1473" y2="171.81818181818184" fill="rgb(0, 0, 0)" stroke="rgb(60, 60, 60)" stroke-width="1px" opacity="0.25"></line><line x1="0" y1="137.45454545454547" x2="1473" y2="137.45454545454547" fill="rgb(0, 0, 0)" stroke="rgb(60, 60, 60)" stroke-width="1px" opacity="0.25"></line><line x1="0" y1="103.09090909090907" x2="1473" y2="103.09090909090907" fill="rgb(0, 0, 0)" stroke="rgb(60, 60, 60)" stroke-width="1px" opacity="0.25"></line><line x1="0" y1="68.72727272727269" x2="1473" y2="68.72727272727269" fill="rgb(0, 0, 0)" stroke="rgb(60, 60, 60)" stroke-width="1px" opacity="0.25"></line><line x1="0" y1="34.36363636363632" x2="1473" y2="34.36363636363632" fill="rgb(0, 0, 0)" stroke="rgb(60, 60, 60)" stroke-width="1px" opacity="0.25"></line><line x1="0" y1="0" x2="1473" y2="0" fill="rgb(0, 0, 0)" stroke="rgb(60, 60, 60)" stroke-width="1px" opacity="0.25"></line></g></g></g><g><g><line x1="0" y1="652.909090909091" x2="1473" y2="652.909090909091" fill="rgb(0, 0, 0)" stroke="rgb(153, 153, 153)" stroke-width="1.5px"></line></g></g><g><g><line x1="105.21428571428571" y1="0" x2="105.21428571428571" y2="378" fill="rgb(0, 0, 0)" stroke="rgb(153, 153, 153)" stroke-width="1.5px"></line></g></g><g><g><g><g><g><path stroke="rgb(255, 112, 67)" stroke-width="2px" d="M115.73571428571428,159.79920361258766L126.25714285714285,3.6020807894793734L136.77857142857144,42.53640158145464L147.3,104.09249720455495L157.82142857142856,179.9239596457792L168.34285714285713,226.4513543967669L178.8642857142857,149.62185286651177L189.38571428571427,2.8826329888597115L199.90714285714284,153.1563326892343L210.42857142857142,60.78143771220067L220.95,118.63970864707346L231.47142857142856,-41.10913084715975L241.99285714285713,160.1449865062557L252.5142857142857,207.70936106331231L263.0357142857143,249.23379183471053L273.5571428571429,127.21307446315981L284.0785714285714,155.80631466582207L294.6,102.84450457224898L305.12142857142857,215.5788207213895L315.6428571428571,205.16007186564377L326.1642857142857,237.4592340648872L336.68571428571425,177.45759554271132L347.20714285714286,77.60534641005302L357.7285714285714,125.09743230736007L368.25,281.6589463205984L378.77142857142854,290.640396558146L389.29285714285714,372.6272316302067L399.8142857142857,229.55334046164563L410.3357142857143,-11.780046251375097L420.85714285714283,199.19327079895567L431.37857142857143,147.42518912204025L441.9,169.09310803924754L452.4214285714286,162.52194866059727L462.9428571428571,183.48485796350212L473.4642857142857,237.11561957550705L483.98571428571427,170.65798925163773L494.5071428571428,186.44578061490765L505.0285714285714,241.9341251905009L515.55,178.20098929406913L526.0714285714286,266.9643677190189L536.5928571428572,340.43549024919344L547.1142857142858,269.86917781168006L557.6357142857142,227.88060486657912L568.1571428571428,242.97887849623814L578.6785714285714,259.42889726005853L589.2,161.2212254952127L599.7214285714285,14.204361642722631L610.2428571428571,158.737636804497L620.7642857142857,127.25157382657557L631.2857142857142,173.64457262481713L641.8071428571428,176.9383209348861L652.3285714285714,132.81788858602732L662.85,83.49148551386827L673.3714285714285,55.786997797993706L683.8928571428571,128.39490795313387L694.4142857142857,181.84963401556394L704.9357142857143,277.83387296223873L715.4571428571428,158.30350845999962L725.9785714285715,196.7171859510529L736.5,142.24653301588606L747.0214285714285,129.8043144212367L757.5428571428571,161.35784208735728L768.0642857142858,10.101055572014957L778.5857142857143,6.350617161956734L789.1071428571429,173.83277997901502L799.6285714285714,224.84841832726397L810.1500000000001,133.87646661525477L820.6714285714286,215.59356380461608L831.1928571428572,283.3844423654667L841.7142857142857,304.1449076955584L852.2357142857144,291.08789692182836L862.7571428571429,220.7714617449882L873.2785714285715,322.06322541555096L883.8,211.73637684146036L894.3214285714286,160.97243665757725L904.8428571428572,111.94583047418837L915.3642857142858,138.62136479230338L925.8857142857142,88.99756889133437L936.4071428571428,148.12734035712842L946.9285714285714,152.21419104483238L957.45,255.5986194513124L967.9714285714285,329.36935099970594L978.4928571428571,323.86177594614253L989.0142857142856,277.59542652405094L999.5357142857143,176.14860688599924L1010.0571428571428,234.21248587287704L1020.5785714285714,151.02968322336116L1031.1,278.1828134418042L1041.6214285714286,377.26173104787756L1052.142857142857,356.1116675297747L1062.6642857142856,229.11809842241692L1073.1857142857143,335.54894757974245L1083.707142857143,209.72615764779886L1094.2285714285715,299.6311202898207L1104.75,301.3755275802201L1115.2714285714285,216.15442736994268L1125.792857142857,103.91300120817601L1136.3142857142857,256.1594909296994L1146.8357142857144,134.6945413748362L1157.357142857143,249.78125527554928L1167.8785714285714,214.19346026593774L1178.4,311.85269244159224L1188.9214285714286,377.7857537335129L1199.442857142857,151.96070623791041L1209.9642857142858,268.11373953621717L1220.4857142857143,240.30313765927465L1231.007142857143,264.51774785907025L1241.5285714285715,210.4173597736253L1252.05,144.6346316352434L1262.5714285714284,80.13377674365267L1273.0928571428572,151.59447430230622L1283.6142857142856,88.77536957547431L1294.1357142857144,208.5543111475701L1304.6571428571428,295.25987405905045L1315.1785714285716,259.34570725431126L1325.7,352.5553023708793L1336.2214285714285,303.52419840001113L1346.742857142857,217.28081996968302L1357.2642857142857,278.5350828284785L1367.7857142857142,234.00085290379096L1378.307142857143,200.9180956586786L1388.8285714285714,231.6579284741145L1399.35,240.3457042737997L1409.8714285714286,285.8340075536542L1420.392857142857,192.7794444179735" style="fill: none;" fill="none"></path></g><g><path stroke="rgb(0, 119, 187)" stroke-width="2px" d="M170.97321428571428,145.82329507307574L236.73214285714286,164.82090604305267L302.49107142857144,184.94166939599177L368.25,201.03412819705548L434.00892857142856,212.70942864870173L499.76785714285717,223.39891595565035L565.5267857142858,234.61843137534171L631.2857142857142,238.21595493570908L697.0446428571429,242.32702108538447L762.8035714285714,250.66234538014578L828.5625,257.3280480849236L894.3214285714286,259.02332902149305L960.0803571428571,264.4598311536083L1025.8392857142858,268.3807419595766L1091.5982142857142,262.8522778122696L1157.357142857143,268.2459135820418L1223.1160714285716,268.4490601061126L1288.875,273.2611989763992L1354.6339285714284,271.053266160719L1420.392857142857,272.6173284585639" style="fill: none;" fill="none"></path></g></g></g></g><g opacity="0.2"><g><g><g><path stroke="rgb(255, 112, 67)" stroke-width="2px" d="M115.73571428571428,159.79920361258766L126.25714285714285,-90.11619290438574L136.77857142857144,79.91334954175079L147.3,176.4824656573209L157.82142857142856,278.92951700904155L168.34285714285713,290.8154911994934L178.8642857142857,39.754436406222226L189.38571428571427,-211.0645582892679L199.90714285714284,374.78085058385676L210.42857142857142,-76.38451558893377L220.95,204.90234479037198L231.47142857142856,-279.8630439584906L241.99285714285713,461.36903292482555L252.5142857142857,278.96273933757436L263.0357142857143,311.47162758220327L273.5571428571429,-55.731943130493164L284.0785714285714,198.68407526883212L294.6,23.415236429734648L305.12142857142857,384.6631210067056L315.6428571428571,189.53290089693937L326.1642857142857,285.90620600093496L336.68571428571425,87.45711213892156L347.20714285714286,-72.17105588045996L357.7285714285714,196.33499856428665L368.25,516.5001045682213L378.77142857142854,304.1125336126848L389.29285714285714,495.60727445645773L399.8142857142857,14.942723360928596L410.3357142857143,-373.779904018749L420.85714285714283,515.6531297727065L431.37857142857143,69.77308377352625L441.9,201.59498210386798L452.4214285714286,152.66521037708628L462.9428571428571,214.92922041632912L473.4642857142857,317.5617596886375L483.98571428571427,70.97154547951436L494.5071428571428,210.12746741554955L505.0285714285714,325.1666415387934L515.55,82.6012858044017L526.0714285714286,400.10943505980754L536.5928571428572,450.64217389713633L547.1142857142858,164.0197092403065L557.6357142857142,164.89774547923693L568.1571428571428,265.62628893418747L578.6785714285714,284.10392540151423L589.2,13.909717863256276L599.7214285714285,-206.32093412225902L610.2428571428571,375.53754953904587L620.7642857142857,80.02247936075383L631.2857142857142,243.2340708212419L641.8071428571428,181.87894339994952L652.3285714285714,66.6372400630604L662.85,9.501880905844928L673.3714285714285,14.230266224254251L683.8928571428571,237.30677318572998L694.4142857142857,262.0317231091586L704.9357142857143,421.8102313821966L715.4571428571428,-20.99203829331833L725.9785714285715,254.33770218762487L736.5,60.54055361314255L747.0214285714285,111.14098652926356L757.5428571428571,208.68813358653674L768.0642857142858,-216.78412420099437L778.5857142857143,0.7249595468694565L789.1071428571429,425.05602420460093L799.6285714285714,301.37187584963715L810.1500000000001,-2.581460952758789L820.6714285714286,338.16920958865774L831.1928571428572,385.07076020674276L841.7142857142857,335.285605690696L852.2357142857144,271.50238076123327L862.7571428571429,115.29680897972798L873.2785714285715,474.00087092139506L883.8,46.24610398032445L894.3214285714286,84.82652638175267L904.8428571428572,38.40592119910497L915.3642857142858,178.63466626947573L925.8857142857142,14.561875039880931L936.4071428571428,236.82199755581942L946.9285714285714,158.34446707638827L957.45,410.6752620610324L967.9714285714285,440.02544832229614L978.4928571428571,315.6004133657976L989.0142857142856,208.19590239091352L999.5357142857143,23.97837742892176L1010.0571428571428,321.3083043531938L1020.5785714285714,26.255479249087216L1031.1,468.91250876946884L1041.6214285714286,525.8801074569876L1052.142857142857,324.38657225262034L1062.6642857142856,38.62774476138026L1073.1857142857143,495.19522131573075L1083.707142857143,20.991972749883473L1094.2285714285715,434.4885642528534L1104.75,303.9921385158192L1115.2714285714285,88.32277705452657L1125.792857142857,-64.44913803447383L1157.357142857143,422.41132612661886L1167.8785714285714,160.8117677515203L1178.4,458.34154070507395L1209.9642857142858,442.34328948367727L1220.4857142857143,198.58723484386095L1231.007142857143,300.8396631587635L1241.5285714285715,129.26677764545786L1252.05,45.96053942767054L1262.5714285714284,-16.61750559373337L1273.0928571428572,258.7855206402865L1283.6142857142856,-5.453287514773308L1304.6571428571428,425.31821842627096L1315.1785714285716,205.47445704720238L1325.7,492.3696950457313L1336.2214285714285,229.97754244370893L1346.742857142857,87.91575232419098L1357.2642857142857,370.4164771166715L1367.7857142857142,167.19950801675967L1378.307142857143,151.29395979101005L1388.8285714285714,277.7676776972684L1399.35,253.37736797332764L1409.8714285714286,354.0664624734359L1420.392857142857,53.197599714452565" style="fill: none;" fill="none"></path></g><g><path stroke="rgb(0, 119, 187)" stroke-width="2px" d="M170.97321428571428,145.82329507307574L236.73214285714286,176.21947262503883L302.49107142857144,204.25760221481323L368.25,219.95885974710637L434.00892857142856,227.95270091837102L499.76785714285717,238.186325116591L565.5267857142858,250.66251793774694L631.2857142857142,243.46117882295087L697.0446428571429,248.3900451226668L762.8035714285714,263.03933052583176L828.5625,267.2661447091536L894.3214285714286,261.5570247823542L960.0803571428571,272.59683322906494L1025.8392857142858,274.2544266960838L1091.5982142857142,254.5660800933838L1157.357142857143,276.3325632268732L1223.1160714285716,268.7536939274181L1288.875,280.4781854802912L1354.6339285714284,267.74170329354024L1420.392857142857,274.9632789438421" style="fill: none;" fill="none"></path></g></g></g></g></g></g><g transform="translate(40, 378)" clip-path="url(#clip_1)"><clipPath id="clip_1"><rect width="1473" height="22"></rect></clipPath><g><g><line x1="0" y1="0" x2="0" y2="5" style="visibility: inherit;" fill="rgb(0, 0, 0)" stroke="rgb(204, 204, 204)" stroke-width="1px"></line><line x1="105.21428571428571" y1="0" x2="105.21428571428571" y2="5" style="visibility: inherit;" fill="rgb(0, 0, 0)" stroke="rgb(204, 204, 204)" stroke-width="1px"></line><line x1="210.42857142857142" y1="0" x2="210.42857142857142" y2="5" style="visibility: inherit;" fill="rgb(0, 0, 0)" stroke="rgb(204, 204, 204)" stroke-width="1px"></line><line x1="315.6428571428571" y1="0" x2="315.6428571428571" y2="5" style="visibility: inherit;" fill="rgb(0, 0, 0)" stroke="rgb(204, 204, 204)" stroke-width="1px"></line><line x1="420.85714285714283" y1="0" x2="420.85714285714283" y2="5" style="visibility: inherit;" fill="rgb(0, 0, 0)" stroke="rgb(204, 204, 204)" stroke-width="1px"></line><line x1="526.0714285714286" y1="0" x2="526.0714285714286" y2="5" style="visibility: inherit;" fill="rgb(0, 0, 0)" stroke="rgb(204, 204, 204)" stroke-width="1px"></line><line x1="631.2857142857142" y1="0" x2="631.2857142857142" y2="5" style="visibility: inherit;" fill="rgb(0, 0, 0)" stroke="rgb(204, 204, 204)" stroke-width="1px"></line><line x1="736.5" y1="0" x2="736.5" y2="5" style="visibility: inherit;" fill="rgb(0, 0, 0)" stroke="rgb(204, 204, 204)" stroke-width="1px"></line><line x1="841.7142857142857" y1="0" x2="841.7142857142857" y2="5" style="visibility: inherit;" fill="rgb(0, 0, 0)" stroke="rgb(204, 204, 204)" stroke-width="1px"></line><line x1="946.9285714285714" y1="0" x2="946.9285714285714" y2="5" style="visibility: inherit;" fill="rgb(0, 0, 0)" stroke="rgb(204, 204, 204)" stroke-width="1px"></line><line x1="1052.142857142857" y1="0" x2="1052.142857142857" y2="5" style="visibility: inherit;" fill="rgb(0, 0, 0)" stroke="rgb(204, 204, 204)" stroke-width="1px"></line><line x1="1157.357142857143" y1="0" x2="1157.357142857143" y2="5" style="visibility: inherit;" fill="rgb(0, 0, 0)" stroke="rgb(204, 204, 204)" stroke-width="1px"></line><line x1="1262.5714285714284" y1="0" x2="1262.5714285714284" y2="5" style="visibility: inherit;" fill="rgb(0, 0, 0)" stroke="rgb(204, 204, 204)" stroke-width="1px"></line><line x1="1367.7857142857142" y1="0" x2="1367.7857142857142" y2="5" style="visibility: inherit;" fill="rgb(0, 0, 0)" stroke="rgb(204, 204, 204)" stroke-width="1px"></line><line x1="1473" y1="0" x2="1473" y2="5" style="visibility: inherit;" fill="rgb(0, 0, 0)" stroke="rgb(204, 204, 204)" stroke-width="1px"></line></g><g transform="translate(0, 8)"><text x="0" y="0" dx="0em" dy="0.95em" style="text-anchor: middle; visibility: hidden; font-family: &quot;Helvetica Neue&quot;, sans-serif; font-size: 12px; font-weight: 200;" fill="rgb(50, 49, 63)" stroke="none" stroke-width="1px">-20k</text><text x="105.21428571428571" y="0" dx="0em" dy="0.95em" style="text-anchor: middle; visibility: inherit; font-family: &quot;Helvetica Neue&quot;, sans-serif; font-size: 12px; font-weight: 200;" fill="rgb(50, 49, 63)" stroke="none" stroke-width="1px">0</text><text x="210.42857142857142" y="0" dx="0em" dy="0.95em" style="text-anchor: middle; visibility: inherit; font-family: &quot;Helvetica Neue&quot;, sans-serif; font-size: 12px; font-weight: 200;" fill="rgb(50, 49, 63)" stroke="none" stroke-width="1px">20k</text><text x="315.6428571428571" y="0" dx="0em" dy="0.95em" style="text-anchor: middle; visibility: inherit; font-family: &quot;Helvetica Neue&quot;, sans-serif; font-size: 12px; font-weight: 200;" fill="rgb(50, 49, 63)" stroke="none" stroke-width="1px">40k</text><text x="420.85714285714283" y="0" dx="0em" dy="0.95em" style="text-anchor: middle; visibility: inherit; font-family: &quot;Helvetica Neue&quot;, sans-serif; font-size: 12px; font-weight: 200;" fill="rgb(50, 49, 63)" stroke="none" stroke-width="1px">60k</text><text x="526.0714285714286" y="0" dx="0em" dy="0.95em" style="text-anchor: middle; visibility: inherit; font-family: &quot;Helvetica Neue&quot;, sans-serif; font-size: 12px; font-weight: 200;" fill="rgb(50, 49, 63)" stroke="none" stroke-width="1px">80k</text><text x="631.2857142857142" y="0" dx="0em" dy="0.95em" style="text-anchor: middle; visibility: inherit; font-family: &quot;Helvetica Neue&quot;, sans-serif; font-size: 12px; font-weight: 200;" fill="rgb(50, 49, 63)" stroke="none" stroke-width="1px">100k</text><text x="736.5" y="0" dx="0em" dy="0.95em" style="text-anchor: middle; visibility: inherit; font-family: &quot;Helvetica Neue&quot;, sans-serif; font-size: 12px; font-weight: 200;" fill="rgb(50, 49, 63)" stroke="none" stroke-width="1px">120k</text><text x="841.7142857142857" y="0" dx="0em" dy="0.95em" style="text-anchor: middle; visibility: inherit; font-family: &quot;Helvetica Neue&quot;, sans-serif; font-size: 12px; font-weight: 200;" fill="rgb(50, 49, 63)" stroke="none" stroke-width="1px">140k</text><text x="946.9285714285714" y="0" dx="0em" dy="0.95em" style="text-anchor: middle; visibility: inherit; font-family: &quot;Helvetica Neue&quot;, sans-serif; font-size: 12px; font-weight: 200;" fill="rgb(50, 49, 63)" stroke="none" stroke-width="1px">160k</text><text x="1052.142857142857" y="0" dx="0em" dy="0.95em" style="text-anchor: middle; visibility: inherit; font-family: &quot;Helvetica Neue&quot;, sans-serif; font-size: 12px; font-weight: 200;" fill="rgb(50, 49, 63)" stroke="none" stroke-width="1px">180k</text><text x="1157.357142857143" y="0" dx="0em" dy="0.95em" style="text-anchor: middle; visibility: inherit; font-family: &quot;Helvetica Neue&quot;, sans-serif; font-size: 12px; font-weight: 200;" fill="rgb(50, 49, 63)" stroke="none" stroke-width="1px">200k</text><text x="1262.5714285714284" y="0" dx="0em" dy="0.95em" style="text-anchor: middle; visibility: inherit; font-family: &quot;Helvetica Neue&quot;, sans-serif; font-size: 12px; font-weight: 200;" fill="rgb(50, 49, 63)" stroke="none" stroke-width="1px">220k</text><text x="1367.7857142857142" y="0" dx="0em" dy="0.95em" style="text-anchor: middle; visibility: inherit; font-family: &quot;Helvetica Neue&quot;, sans-serif; font-size: 12px; font-weight: 200;" fill="rgb(50, 49, 63)" stroke="none" stroke-width="1px">240k</text><text x="1473" y="0" dx="0em" dy="0.95em" style="text-anchor: middle; visibility: hidden; font-family: &quot;Helvetica Neue&quot;, sans-serif; font-size: 12px; font-weight: 200;" fill="rgb(50, 49, 63)" stroke="none" stroke-width="1px">260k</text></g><line x1="0" y1="0" x2="1473" y2="0" fill="rgb(0, 0, 0)" stroke="rgb(204, 204, 204)" stroke-width="1px"></line></g></g></g></g></svg>